<svg xmlns="http://www.w3.org/2000/svg" viewBox="0 0 500 500"><g id="freepik--background-complete--inject-18"><rect y="382.4" width="500" height="0.25" style="fill:#ebebeb"></rect><rect x="52.46" y="398.49" width="33.12" height="0.25" style="fill:#ebebeb"></rect><rect x="171.14" y="401.21" width="8.69" height="0.25" style="fill:#ebebeb"></rect><rect x="86.58" y="389.21" width="25.42" height="0.25" style="fill:#ebebeb"></rect><rect x="422" y="390.89" width="27.9" height="0.25" style="fill:#ebebeb"></rect><rect x="391.47" y="390.89" width="21.63" height="0.25" style="fill:#ebebeb"></rect><rect x="277.21" y="395.11" width="51.45" height="0.25" style="fill:#ebebeb"></rect><path d="M237,337.8H43.91a5.71,5.71,0,0,1-5.7-5.71V60.66A5.71,5.71,0,0,1,43.91,55H237a5.71,5.71,0,0,1,5.71,5.71V332.09A5.71,5.71,0,0,1,237,337.8ZM43.91,55.2a5.46,5.46,0,0,0-5.45,5.46V332.09a5.46,5.46,0,0,0,5.45,5.46H237a5.47,5.47,0,0,0,5.46-5.46V60.66A5.47,5.47,0,0,0,237,55.2Z" style="fill:#ebebeb"></path><path d="M453.31,337.8H260.21a5.72,5.72,0,0,1-5.71-5.71V60.66A5.72,5.72,0,0,1,260.21,55h193.1A5.71,5.71,0,0,1,459,60.66V332.09A5.71,5.71,0,0,1,453.31,337.8ZM260.21,55.2a5.47,5.47,0,0,0-5.46,5.46V332.09a5.47,5.47,0,0,0,5.46,5.46h193.1a5.47,5.47,0,0,0,5.46-5.46V60.66a5.47,5.47,0,0,0-5.46-5.46Z" style="fill:#ebebeb"></path><rect x="351.99" y="99.36" width="89.81" height="89.81" style="fill:#ebebeb"></rect><rect x="349.7" y="99.36" width="2.29" height="89.81" transform="translate(701.68 288.53) rotate(180)" style="fill:#e0e0e0"></rect><rect x="360.29" y="107.66" width="73.21" height="73.21" style="fill:#f5f5f5"></rect><rect x="432.83" y="107.66" width="0.67" height="73.21" style="fill:#e0e0e0"></rect><rect x="78.3" y="144" width="154.16" height="7.48" transform="translate(310.76 295.49) rotate(180)" style="fill:#f0f0f0"></rect><rect x="56.05" y="144" width="22.24" height="7.48" style="fill:#e6e6e6"></rect><polygon points="85.8 151.49 95.52 151.49 88.44 162.18 85.8 162.18 85.8 151.49" style="fill:#ebebeb"></polygon><rect x="84.4" y="151.49" width="1.4" height="10.69" style="fill:#e6e6e6"></rect><polygon points="193.06 151.49 202.78 151.49 195.7 162.18 193.06 162.18 193.06 151.49" style="fill:#ebebeb"></polygon><rect x="191.66" y="151.49" width="1.4" height="10.69" style="fill:#e6e6e6"></rect><rect x="85.91" y="109.26" width="12.5" height="34.74" style="fill:#e0e0e0"></rect><polygon points="91.68 144 162.89 144 156.37 96.45 85.16 96.45 91.68 144" style="fill:#f5f5f5"></polygon><polygon points="94.3 141 88.6 99.45 153.75 99.45 159.45 141 94.3 141" style="fill:#fafafa"></polygon><polygon points="91.68 144 89.79 144 83.28 96.45 85.16 96.45 91.68 144" style="fill:#e6e6e6"></polygon><rect x="184.39" y="91.15" width="6.78" height="52.85" style="fill:#ebebeb"></rect><rect x="187.78" y="101.6" width="13.94" height="2.33" style="fill:#ebebeb"></rect><rect x="178.34" y="118.96" width="18.88" height="20.78" rx="7.99" style="fill:#e0e0e0"></rect><path d="M184,138.37h0a8.22,8.22,0,0,1-8.2-8.19v-1.65a8.22,8.22,0,0,1,8.2-8.2h0a8.22,8.22,0,0,1,8.2,8.2v1.65A8.22,8.22,0,0,1,184,138.37Z" style="fill:#f0f0f0"></path><path d="M218.8,138.37h0a8.22,8.22,0,0,0,8.2-8.19v-1.65a8.22,8.22,0,0,0-8.2-8.2h0a8.22,8.22,0,0,0-8.19,8.2v1.65A8.21,8.21,0,0,0,218.8,138.37Z" style="fill:#f0f0f0"></path><rect x="205.6" y="118.96" width="18.88" height="20.78" rx="7.99" transform="translate(430.08 258.71) rotate(180)" style="fill:#e0e0e0"></rect><path d="M216.54,120.48h-3v-6.81a12.13,12.13,0,1,0-24.26,0v6.81h-3v-6.81a15.13,15.13,0,1,1,30.26,0Z" style="fill:#e0e0e0"></path><rect x="199.15" y="99.02" width="7.48" height="2.33" transform="translate(303.08 -102.7) rotate(90)" style="fill:#ebebeb"></rect><rect x="280.6" y="76.46" width="54.94" height="54.94" style="fill:#ebebeb"></rect><rect x="279.2" y="76.46" width="1.4" height="54.94" transform="translate(559.8 207.86) rotate(180)" style="fill:#e0e0e0"></rect><rect x="285.68" y="81.54" width="44.79" height="44.79" style="fill:#f5f5f5"></rect><rect x="330.05" y="81.54" width="0.41" height="44.79" style="fill:#e0e0e0"></rect></g><g id="freepik--Shadow--inject-18"><ellipse id="freepik--path--inject-18" cx="250" cy="416.24" rx="193.89" ry="11.32" style="fill:#f5f5f5"></ellipse></g><g id="freepik--Desk--inject-18"><path d="M335.94,284.08h-1V230.39a3.82,3.82,0,0,1,3.81-3.81v1a2.81,2.81,0,0,0-2.81,2.81Z" style="fill:#263238"></path><path d="M335,302.21H190.3a11.06,11.06,0,0,1-11-11v-10h1v10a10.06,10.06,0,0,0,10,10H335Z" style="fill:#263238"></path><path d="M271.67,302.21a11.06,11.06,0,0,1-11-11v-10h1v10a10.06,10.06,0,0,0,10,10Z" style="fill:#263238"></path><rect x="329.67" y="257.28" width="9.08" height="1" style="fill:#263238"></rect><rect x="329.67" y="253.03" width="9.08" height="1" style="fill:#263238"></rect><rect x="329.67" y="248.77" width="9.08" height="1" style="fill:#263238"></rect><rect x="65.63" y="282.53" width="368.75" height="4" style="fill:#40DDFF"></rect><rect x="69.32" y="286.53" width="14.01" height="125.02" style="fill:#40DDFF"></rect><rect x="81.33" y="286.53" width="2" height="125.02" style="opacity:0.4"></rect><rect x="69.32" y="286.53" width="14.01" height="2.22" style="opacity:0.2"></rect><rect x="65.63" y="282.53" width="21.4" height="4" style="opacity:0.4"></rect><rect x="324" y="286.53" width="104.32" height="125.02" style="fill:#40DDFF"></rect><rect x="363.17" y="386.21" width="65.15" height="0.97" style="opacity:0.2"></rect><rect x="363.17" y="361.84" width="65.15" height="0.97" style="opacity:0.2"></rect><rect x="363.17" y="337.48" width="65.15" height="0.97" style="opacity:0.2"></rect><rect x="363.17" y="313.11" width="65.15" height="0.97" style="opacity:0.2"></rect><rect x="385.5" y="367.73" width="20.5" height="0.97" style="opacity:0.2"></rect><rect x="385.5" y="343.37" width="20.5" height="0.97" style="opacity:0.2"></rect><rect x="385.5" y="392.1" width="20.5" height="0.97" style="opacity:0.2"></rect><rect x="385.5" y="319" width="20.5" height="0.97" style="opacity:0.2"></rect><rect x="385.5" y="294.64" width="20.5" height="0.97" style="opacity:0.2"></rect><rect x="324" y="286.53" width="39.17" height="125.02" style="opacity:0.4"></rect><rect x="324" y="286.53" width="104.32" height="2.22" style="opacity:0.2"></rect><rect x="337.58" y="214.08" width="88.56" height="68.44" style="fill:#263238"></rect><rect x="403.8" y="214.08" width="22.33" height="68.44" transform="translate(829.94 496.61) rotate(180)" style="opacity:0.30000000000000004"></rect><rect x="341.14" y="217.76" width="59.11" height="48.33" style="fill:#40DDFF;opacity:0.4"></rect><rect x="355.25" y="217.76" width="45" height="48.33" style="fill:#40DDFF;opacity:0.4"></rect><rect x="356.89" y="219.83" width="33.31" height="40.98" style="fill:#263238;opacity:0.8"></rect><rect x="374.34" y="223.36" width="14.01" height="28.52" style="fill:#40DDFF;opacity:0.1"></rect><rect x="361.69" y="237.92" width="11.28" height="11.9" style="fill:#40DDFF;opacity:0.1"></rect><rect x="358.39" y="220.94" width="5.64" height="0.72" style="fill:#40DDFF;opacity:0.1"></rect><rect x="358.39" y="222.36" width="5.64" height="0.73" style="fill:#40DDFF;opacity:0.1"></rect><rect x="358.39" y="223.77" width="5.64" height="0.73" style="fill:#40DDFF;opacity:0.1"></rect><rect x="358.39" y="225.19" width="5.64" height="0.73" style="fill:#40DDFF;opacity:0.1"></rect><path d="M390.19,261.06a.26.26,0,0,1-.25-.25V220.08H356.88a.25.25,0,0,1,0-.5h33.31a.25.25,0,0,1,.25.25v41A.25.25,0,0,1,390.19,261.06Z" style="fill:#fff"></path><g style="opacity:0.4"><rect x="375.35" y="227.95" width="3.84" height="17.36" style="fill:#40DDFF"></rect><rect x="375.35" y="227.95" width="0.63" height="17.36" style="fill:#263238"></rect><rect x="376.98" y="227.95" width="3.84" height="17.36" style="fill:#40DDFF"></rect><rect x="376.98" y="227.95" width="0.63" height="17.36" style="fill:#263238"></rect><rect x="378.6" y="227.95" width="3.84" height="17.36" style="fill:#40DDFF"></rect><rect x="378.6" y="227.95" width="0.63" height="17.36" style="fill:#263238"></rect><rect x="380.23" y="227.95" width="3.84" height="17.36" style="fill:#40DDFF"></rect><rect x="380.23" y="227.95" width="0.63" height="17.36" style="fill:#263238"></rect></g><rect x="341.14" y="266.08" width="59.11" height="12.77" style="fill:#40DDFF;opacity:0.30000000000000004"></rect><rect x="341.14" y="266.08" width="55.64" height="12.77" style="fill:#40DDFF;opacity:0.30000000000000004"></rect><rect x="348.44" y="252.85" width="27.25" height="3.92" style="fill:#263238"></rect><rect x="348.44" y="226.57" width="23.81" height="20.46" style="fill:#263238"></rect><rect x="367.53" y="252.85" width="8.17" height="3.92" style="opacity:0.30000000000000004"></rect><ellipse cx="365.68" cy="236.8" rx="5.01" ry="9.04" style="fill:#40DDFF;opacity:0.5"></ellipse><path d="M367.86,236.8c0,2.17-1,3.93-2.18,3.93s-2.18-1.76-2.18-3.93,1-3.93,2.18-3.93S367.86,234.63,367.86,236.8Z" style="fill:#40DDFF;opacity:0.5"></path><path d="M367.33,236.8c0,1.64-.74,3-1.65,3s-1.65-1.34-1.65-3,.74-3,1.65-3S367.33,235.15,367.33,236.8Z" style="fill:#fff"></path><path d="M365.68,246.09a.25.25,0,0,1,0-.5c2.62,0,4.76-3.94,4.76-8.79a.25.25,0,0,1,.5,0C370.94,241.92,368.58,246.09,365.68,246.09Z" style="fill:#fff"></path><path d="M360.66,237.05a.25.25,0,0,1-.25-.25c0-5.12,2.37-9.29,5.27-9.29a.25.25,0,1,1,0,.5c-2.63,0-4.77,3.94-4.77,8.79A.25.25,0,0,1,360.66,237.05Z" style="fill:#fff"></path><polygon points="400.25 265.03 378.8 265.03 378.8 255.53 370.36 255.53 370.36 254.53 379.8 254.53 379.8 264.03 400.25 264.03 400.25 265.03" style="fill:#263238"></polygon><polygon points="381.93 264.53 380.93 264.53 380.93 255.53 372.48 255.53 372.48 254.53 381.93 254.53 381.93 264.53" style="fill:#263238"></polygon><polygon points="384.06 264.53 383.06 264.53 383.06 255.53 374.61 255.53 374.61 254.53 384.06 254.53 384.06 264.53" style="fill:#263238"></polygon><path d="M424.62,217.31a1.69,1.69,0,1,1-1.66-2A1.85,1.85,0,0,1,424.62,217.31Z" style="fill:#40DDFF;opacity:0.5"></path><path d="M419,217.31a.45.45,0,1,1-.45-.54A.5.5,0,0,1,419,217.31Z" style="fill:#40DDFF;opacity:0.5"></path><path d="M416.92,217.31a.45.45,0,1,1-.45-.54A.5.5,0,0,1,416.92,217.31Z" style="fill:#40DDFF;opacity:0.5"></path><path d="M374.08,255.06h-9.94a.25.25,0,0,1-.25-.25.25.25,0,0,1,.25-.25h9.94a.25.25,0,0,1,.25.25A.25.25,0,0,1,374.08,255.06Z" style="fill:#fff"></path><rect x="169.65" y="201.26" width="93.28" height="58.52" style="fill:#40DDFF"></rect><rect x="189.03" y="185.88" width="54.52" height="89.28" transform="translate(446.81 14.23) rotate(90)" style="fill:#263238;opacity:0.7000000000000001"></rect><rect x="112.43" y="201.26" width="57.22" height="58.52" style="fill:#40DDFF"></rect><rect x="110.18" y="201.26" width="2.25" height="58.52" transform="translate(222.61 461.03) rotate(180)" style="fill:#263238"></rect><rect x="113.78" y="203.35" width="54.52" height="54.33" transform="translate(371.56 89.48) rotate(90)" style="fill:#263238;opacity:0.7000000000000001"></rect><rect x="262.93" y="201.26" width="67.33" height="58.52" style="fill:#40DDFF"></rect><rect x="269.34" y="198.29" width="54.52" height="64.45" transform="translate(527.11 -66.08) rotate(90)" style="fill:#263238;opacity:0.7000000000000001"></rect><polygon points="218.85 250.31 217.11 250.31 216.9 249.25 215.68 249.25 215.47 250.31 213.74 250.31 212.32 251.97 212.32 254.75 220.26 254.75 220.26 251.97 218.85 250.31" style="fill:#fff"></polygon><rect x="215.85" y="243.6" width="0.89" height="3.08" style="fill:#fff"></rect><rect x="212.32" y="235.64" width="0.89" height="3.08" style="fill:#fff"></rect><rect x="208.26" y="228.98" width="0.89" height="3.08" style="fill:#fff"></rect><rect x="174.76" y="206.72" width="9.18" height="3.17" style="fill:#40DDFF"></rect><rect x="195.87" y="206.72" width="9.18" height="3.17" style="fill:#40DDFF"></rect><rect x="227.53" y="206.72" width="9.18" height="3.17" style="fill:#40DDFF"></rect><rect x="238.09" y="206.72" width="9.18" height="3.17" style="fill:#40DDFF"></rect><rect x="248.64" y="206.72" width="9.18" height="3.17" style="fill:#40DDFF"></rect><rect x="185.32" y="210.97" width="9.18" height="3.17" style="fill:#40DDFF"></rect><rect x="206.42" y="210.97" width="9.18" height="3.17" style="fill:#40DDFF"></rect><rect x="195.87" y="215.23" width="9.18" height="3.17" style="fill:#40DDFF"></rect><rect x="248.64" y="215.23" width="9.18" height="3.17" style="fill:#40DDFF"></rect><rect x="174.76" y="219.48" width="9.18" height="3.17" style="fill:#40DDFF"></rect><rect x="320.6" y="219.48" width="6.8" height="3.17" transform="translate(648.01 442.12) rotate(180)" style="fill:#40DDFF"></rect><rect x="304.97" y="219.48" width="6.8" height="3.17" transform="translate(616.74 442.12) rotate(180)" style="fill:#40DDFF"></rect><rect x="312.79" y="215.23" width="6.8" height="3.17" transform="translate(632.37 433.62) rotate(180)" style="fill:#40DDFF"></rect><rect x="304.97" y="210.97" width="6.8" height="3.17" transform="translate(616.74 425.12) rotate(180)" style="fill:#40DDFF"></rect><rect x="265.89" y="210.97" width="6.8" height="3.17" transform="translate(538.58 425.12) rotate(180)" style="fill:#40DDFF"></rect><rect x="320.6" y="206.72" width="6.8" height="3.17" transform="translate(648.01 416.61) rotate(180)" style="fill:#40DDFF"></rect><rect x="161.11" y="206.72" width="5.71" height="3.17" transform="translate(327.93 416.61) rotate(180)" style="fill:#40DDFF"></rect><rect x="147.97" y="206.72" width="5.71" height="3.17" transform="translate(301.65 416.61) rotate(180)" style="fill:#40DDFF"></rect><rect x="121.69" y="206.72" width="5.71" height="3.17" transform="translate(249.1 416.61) rotate(180)" style="fill:#40DDFF"></rect><rect x="154.54" y="210.97" width="5.71" height="3.17" transform="translate(314.79 425.12) rotate(180)" style="fill:#40DDFF"></rect><rect x="141.4" y="210.97" width="5.71" height="3.17" transform="translate(288.51 425.12) rotate(180)" style="fill:#40DDFF"></rect><rect x="115.12" y="215.23" width="5.71" height="3.17" transform="translate(235.96 433.62) rotate(180)" style="fill:#40DDFF"></rect><rect x="161.11" y="219.48" width="5.71" height="3.17" transform="translate(327.93 442.12) rotate(180)" style="fill:#40DDFF"></rect><rect x="72.72" y="249.26" width="47.61" height="33.27" style="fill:#263238"></rect><rect x="98.86" y="249.26" width="21.47" height="33.27" transform="translate(219.2 531.79) rotate(180)" style="opacity:0.30000000000000004"></rect><circle cx="109.6" cy="260.86" r="7.09" style="fill:#40DDFF;opacity:0.4"></circle><path d="M113.06,274.69a3.46,3.46,0,1,1-3.46-3.46A3.46,3.46,0,0,1,113.06,274.69Z" style="fill:#40DDFF;opacity:0.2"></path><polygon points="177.4 282.53 176.11 277.48 186.2 282.53 177.4 282.53" style="fill:#263238"></polygon><polygon points="231.95 277.48 176.11 277.48 186.2 282.53 242.03 282.53 231.95 277.48" style="fill:#40DDFF"></polygon><path d="M258,282.53s-2.16-5.31,6.64-5.54a23.08,23.08,0,0,1,15,5.54Z" style="fill:#263238"></path></g></svg>
